Patient4_TMGait_0pt7_02_right_39_EMG.mot
version=1
nRows=37
nColumns=33
inDegrees=no
endheader
time	1LAddLong	2LGlutMax	3LGlutMed	4LIliopsoas	5LSemiMemb	6LBicFemLong	7LRecFem	8LVastMed	9LVastLat	10LGasMed	11LTibAnt	12lTibPost	13LPeroneusLong	14LSol	15LExtDigLong	16LFlexDigLong	17RAddLong	18RGlutMax	19RGlutMed	20RIliopsoas	21RSemiMemb	22RBicFemLong	23RRecFem	24RVastMed	25RVastLat	26RGasMed	27RTibAnt	28RTibPost	29RPeroneusLong	30RSol	31RExtDigLong	32RFlexDigLong
44.89	0.028076	0.13001	-0.15152	0.05188	0.038147	-0.020294	0.17456	-0.023193	-0.17532	-0.12863	-0.003204	0.008392	0.28412	0.000458	0.005951	-0.017242	0.000916	0.28564	-0.50552	-0.061035	0.30487	-0.031128	-0.56427	0.02243	0.027008	-0.01358	0.24231	0.000458	0.048676	0.086365	-0.001526	-0.016022
44.891	0.017548	0.22217	-0.091705	0.023346	0.038452	0.073395	0.08667	-0.018768	-0.14648	-0.087128	0.018158	0.016632	0.050354	0.074921	-0.011749	-0.019073	0.019684	0.26993	0.35721	-0.06424	0.30792	-0.047302	-0.51239	-0.012512	0.035706	-0.013428	0.15518	0.001068	0.1767	0.032043	-0.00061	-0.036316
44.892	0.022125	0.27725	-0.045319	0.019836	0.10117	0.1236	-0.062256	-0.014038	-0.16388	-0.030823	0.015564	0.007172	0.005493	0.1265	-0.015106	-0.003204	0.023804	0.22461	0.21881	-0.048065	0.289	-0.030518	-0.48035	0.003052	0.036163	-0.011749	-0.1944	0.004578	0.27084	-0.061188	0.007019	-0.028687
44.893	0.02243	0.23468	0.085754	0.016937	0.14053	0.24048	-0.19562	-0.014191	0.005646	0.016785	0.014038	0.007324	-0.09552	0.080261	0.018768	-0.007629	0.03006	0.17731	-0.42404	0.019226	0.26627	0.01358	-0.48035	-0.059662	0.002289	-0.004883	-0.84732	0.000916	0.25574	-0.070648	-0.00351	-0.025635
44.894	0.012207	0.24445	0.090179	0.046234	0.14221	0.51254	-0.1358	-0.020447	0.083008	0.057526	0.007782	0.010529	-0.27283	0.066833	0.023499	0.001678	0.008087	0.15442	-0.38803	0.033264	0.2066	0.058136	-0.44342	-0.076904	-0.012207	-0.00473	-0.12329	-0.003052	-0.10407	-0.015564	-0.002747	-0.031586
44.895	0.006409	0.2446	0.074615	0.024414	0.08606	0.69412	-0.12344	-0.015259	0.11475	0.058899	-0.003052	0.010376	-0.045776	-0.08728	0.04715	-0.004883	-0.012512	0.15182	-0.29343	0.033569	0.22781	0.040894	-0.45212	-0.059662	-0.003967	0.002289	0.61783	-0.006409	-0.31845	-0.016327	0.002441	-0.033569
44.896	0.013428	0.2626	0.045471	0.020142	0.007935	0.76752	-0.1239	-0.026855	0.15976	0.019379	0.009613	0.006409	-0.23392	-0.13947	0.039063	-0.010834	-0.001221	0.1091	-0.14496	-0.05661	0.22492	-0.032196	-0.48294	-0.068665	-0.019684	0.004425	0.87021	-0.00061	-0.35446	-0.077972	-0.00351	-0.029602
44.897	0.002594	0.26306	0.011597	-0.002289	-0.097198	0.71243	-0.082245	-0.027618	0.13062	0.007935	0.018158	0.010834	-0.448	-0.074463	-0.002747	-0.017242	0.015411	0.041199	-0.1033	-0.039063	0.20966	-0.15533	-0.46219	-0.12329	-0.010529	0.009308	1.0924	-0.006104	-0.37567	-0.04776	0.000153	-0.032654
44.898	-0.020905	0.23285	-0.075684	0.014343	-0.13596	0.75043	0.003204	-0.012665	0.15091	-0.008698	0.014191	0.006256	-0.15915	-0.026398	-0.019226	-0.010376	0.05249	-0.019379	-0.074463	0.072021	0.29358	-0.28839	-0.54657	-0.11063	-0.020599	0.011292	0.43411	-0.009766	-0.24963	-0.057831	-0.002136	-0.032043
44.899	-0.018768	0.22476	-0.18692	0.005035	-0.12085	0.84579	0.055847	0.004425	0.24963	-0.001221	0.011749	0.001678	0.14984	-0.11078	-0.035858	-0.012512	0.066528	-0.092773	-0.27023	0.14481	0.13947	-0.35187	-0.55069	-0.16205	-0.036926	-0.001221	-0.36133	-0.00885	-0.25314	-0.023346	-0.000153	-0.044708
44.9	-0.039215	0.23377	-0.23285	0.007477	-0.11566	0.70618	0.090027	0.005951	0.14404	0.010834	0.009613	0.00824	0.18005	-0.10056	-0.068207	0.000916	0.024261	-0.11383	-0.40054	0.1149	0.018463	-0.23987	-0.63431	-0.090027	-0.030518	-0.008087	-0.34149	-0.006409	-0.044098	-0.061646	-0.001984	-0.042572
44.901	-0.035095	0.23819	-0.27786	0.026245	-0.043945	0.14618	0.14908	-0.005493	0.000763	0.001373	0.009308	0.009308	0.34714	-0.069885	-0.03418	0.019226	0.024719	-0.1059	-0.49484	0.037537	-0.2504	-0.13947	-0.66635	-0.062408	-0.024567	-0.007935	-0.33783	-0.010223	0.17395	-0.159	0.003815	-0.04425
44.902	-0.011444	0.20203	-0.26291	0.032349	-0.040283	-0.57693	0.1355	-0.000916	-0.1059	-0.0177	-0.003052	-0.000763	0.14191	-0.11673	0.022278	0.007477	0.04364	-0.14038	-0.54779	-0.00885	0.005951	-0.10849	-0.65353	-0.009766	-0.027161	0.002747	-0.70343	-0.010071	0.32989	-0.28809	0.001221	-0.045319
44.903	0.020294	0.15686	-0.18814	0.013733	-0.027161	-1.17	0.22507	0.000763	-0.12558	-0.019379	0.016327	-0.001678	-0.086212	-0.13641	0.016632	0.010681	0.043488	-0.17212	-0.40268	-0.041809	0.24368	0.040436	-0.72418	0.094147	0.024567	0.013123	-0.41626	-0.011292	0.25101	-0.19455	0.00061	-0.0354
44.904	0.043335	0.14648	-0.14481	0.022583	-0.070953	-1.5164	0.14984	-0.015106	-0.030823	0.003357	0.001984	-0.005341	-0.043793	-0.12466	0.000153	0.018768	0.008392	-0.21744	-0.34576	0.004578	0.25375	0.14648	-0.73379	0.15045	0.049438	0.010223	-0.81177	-0.010223	0.25726	-0.10941	0.005493	-0.050354
44.905	0.068359	0.12802	-0.16174	0.042267	0.053406	-1.27	0.03067	-0.014954	0.082245	-0.007782	-0.00885	-0.016937	-0.18219	-0.071411	-0.009613	0.026703	-0.07431	-0.21942	-0.40192	0.016785	0.24185	0.060425	-0.73929	0.1265	0.036774	0.001678	-0.093994	-0.018158	-0.089874	-0.10162	0.002441	-0.04303
44.906	0.05127	0.097809	-0.11414	0.030212	0.21912	-0.75958	-0.040283	-0.011292	0.22308	-0.002441	-0.011444	-0.031281	-0.08606	-0.053864	-0.080566	0.049133	-0.11276	-0.26672	-0.46906	-0.021973	0.25879	0.035706	-0.71579	0.045624	0.022736	0.004425	0.2713	-0.016022	-0.1976	-0.020142	0.000763	-0.048218
44.907	0.018005	0.14618	-0.035248	0.027618	0.20111	-0.32272	-0.11353	0.003967	0.2385	-0.015106	-0.003815	-0.033417	-0.060425	-0.018768	-0.083008	0.055084	-0.11414	-0.31998	-0.49423	0.005493	0.27161	-0.066833	-0.73196	-0.019836	0.024872	0.001373	-0.03891	-0.022583	-0.036774	0.14358	0.005035	-0.048523
44.908	0.03067	0.19379	0.021973	0.033112	0.093842	-0.0383	-0.21439	0.063171	0.24536	-0.008698	0.005646	-0.042114	0.10712	-0.000916	-0.048523	0.0737	-0.092926	-0.38193	-0.47943	-0.007477	0.25574	-0.17883	-0.76416	-0.019379	0.036163	-0.000305	-0.33386	-0.020905	-0.025482	0.10239	0.001831	-0.050964
44.909	0.026703	0.15091	-0.05127	0.037231	0.020752	0.10376	-0.38635	0.069275	0.2449	-0.0383	0.001831	-0.062561	0.33447	0.067291	-0.054626	0.074463	-0.020905	-0.38162	-0.44556	-0.075684	0.1886	-0.2298	-0.7962	-0.021515	0.016785	-0.009003	-0.38834	-0.024719	0.036469	0.10284	-0.003662	-0.046234
44.91	0.028076	0.16693	-0.10376	0.019073	0.009003	0.025787	-0.31418	0.04776	0.10056	-0.064697	-0.005035	-0.075836	0.017853	0.017242	-0.089417	0.10483	0.042114	-0.3302	-0.54672	-0.088654	0.112	-0.13534	-0.81604	-0.06958	0.031586	-0.01358	-0.18784	-0.021515	-0.020905	0.075836	0	-0.044556
44.911	0.00824	0.15289	-0.13458	0.021057	0.03952	-0.084991	-0.27023	0.016632	0.043335	-0.074158	0.017242	-0.076904	-0.067902	0.018463	-0.076904	0.11734	0.079956	-0.41275	-0.70419	-0.005341	0.041809	0.12466	-0.8223	-0.025787	0.030823	-0.002289	-0.027466	-0.019989	-0.05188	0.018463	0.000458	-0.03952
44.912	-0.003052	0.14496	-0.16068	0.007477	0.000305	-0.018616	-0.28641	0.016022	0.039673	-0.088654	0.012817	-0.069427	-0.078583	0.005188	-0.077057	0.1329	0.10971	-0.40726	-0.70892	-0.037231	-0.068054	0.2858	-0.84625	0.019836	0.05249	0.001068	0.27542	-0.021667	-0.05722	0.009155	-0.001984	-0.04425
44.913	-0.009003	0.13916	-0.09613	0.011597	-0.098114	0.057068	-0.29114	0.020142	0.08606	-0.081482	0.014343	-0.073395	-0.096741	0.021362	-0.12436	0.15228	0.10895	-0.37628	-0.48691	-0.076752	-0.098267	0.29694	-0.8548	0.076447	0.052338	0.001526	0.38513	-0.02121	-0.067902	0.067291	-0.00351	-0.041809
44.914	-0.0177	0.10162	-0.08606	0.00351	-0.11627	0.15213	-0.26108	-0.007935	0.10498	-0.10803	0.003204	-0.074463	-0.13046	0.066528	-0.10162	0.17609	0.12466	-0.37964	-0.36041	-0.001373	0.11658	0.1828	-0.76935	0.050354	0.027771	-0.01358	0.46295	-0.02594	-0.00946	0.15152	-0.002136	-0.042267
44.915	-0.013123	0.089417	0.079346	-0.02243	-0.075531	0.12619	-0.2739	-0.013428	0.11276	-0.1149	-0.009918	-0.059052	-0.31891	0.090637	-0.017395	0.14038	0.085449	-0.45334	-0.41245	0.1442	0.19608	0.15564	-0.79285	0.11185	0.045319	-0.016937	0.35614	-0.024261	-0.006256	0.072327	-0.002441	-0.055237
44.916	-0.027618	0.13473	0.062714	-0.003967	-0.020752	0.13428	-0.20721	-0.014191	0.02533	-0.099792	-0.010071	-0.037079	-0.10162	0.074615	0.012207	0.085297	0.036011	-0.4451	-0.50827	0.19241	0.19333	0.059662	-0.80414	0.15457	0.026093	-0.015869	-0.10681	-0.027924	0.021973	-0.10468	0.000916	-0.056763
44.917	-0.0177	0.12009	0.04425	-0.003967	0.012054	0.27481	-0.084686	-0.029907	-0.14587	-0.095978	-0.024261	-0.011902	0.05722	0.085602	0.042725	0.02121	0.033417	-0.40344	-0.48691	0.1413	0.18494	-0.1384	-0.80688	0.13077	0.007782	-0.016022	-0.087128	-0.022125	-0.09491	-0.19867	-0.001831	-0.06012
44.918	-0.018768	0.17716	0.030212	-0.008545	-0.035706	0.42068	-0.15396	-0.00061	-0.41351	0.027618	-0.009766	0.014496	-0.13962	0.18631	0.027008	-0.024109	0.010071	-0.38711	-0.44876	0.10193	0.18097	-0.31586	-0.82047	0.093079	0.000916	-0.028381	-0.1416	-0.027008	-0.14862	-0.091095	-0.002747	-0.048523
44.919	-0.024719	0.15427	-0.006104	0.026855	-0.075989	0.39368	-0.22232	0.018921	-0.49591	0.14191	0.007629	0.062256	-0.18234	0.28107	0.01236	-0.063019	-0.021515	-0.41107	-0.3305	0.12009	0.16022	-0.36697	-0.79758	0.059052	0.012054	-0.018921	-0.16647	-0.027924	-0.068359	-0.061798	-0.000153	-0.047607
44.92	-0.032654	0.18585	-0.028381	0.042267	-0.070953	0.27512	-0.26062	0.018005	-0.34637	0.16586	-0.015259	0.091553	-0.11032	0.30502	0.014038	-0.099335	-0.045624	-0.4657	-0.20462	0.1062	0.13534	-0.35339	-0.81009	0.04776	0.008698	-0.013733	-0.14633	-0.026245	0.085907	-0.20493	0.001068	-0.045319
44.921	-0.029907	0.26398	-0.059052	0.029449	-0.04715	0.11932	-0.32989	0.010529	-0.18921	0.16693	-0.015259	0.095978	-0.13397	0.29663	-0.007629	-0.1149	-0.033875	-0.50369	-0.10407	0.092468	0.10712	-0.19836	-0.80994	0.024109	0.008545	-0.01236	-0.14938	-0.023499	0.026703	-0.20111	-0.001984	-0.044403
44.922	-0.022888	0.29434	0.10666	0.035095	-0.078583	0.009308	-0.53192	-0.001831	-0.050812	0.029449	-0.014648	0.11414	-0.25482	0.38834	0.057526	-0.12283	-0.032654	-0.51926	-0.023041	0.017853	0.082092	-0.09964	-0.83221	0.091553	0.024261	-0.006561	-0.066071	-0.02121	0.006866	-0.16296	-0.000916	-0.045471
44.923	-0.008087	0.29862	0.16342	0.023346	-0.11444	-0.065613	-0.62851	0.020599	0.087891	-0.26611	0.018463	0.20294	-0.43671	0.37033	0.06424	-0.16174	-0.026398	-0.60867	0.080261	-0.056763	0.008698	-0.12695	-0.86273	0.10376	0.028839	-0.000305	0.086975	-0.022278	0.033875	-0.012512	-0.00351	-0.039368
44.924	-0.005951	0.29205	0.215	-0.004272	-0.14771	-0.011139	-0.63171	0.072021	0.18509	-0.28076	0.02243	0.19592	-0.42725	0.16205	0.033875	-0.18005	-0.021362	-0.57144	0.23941	-0.078735	-0.030975	-0.13687	-0.89829	0.12619	0.036621	-0.00885	0.15137	-0.020752	0.04425	0.073395	0.000458	-0.035553
44.925	-0.011444	0.35523	0.21652	-0.027313	-0.13962	-0.017242	-0.62714	0.10727	0.31281	-0.25375	0.002289	0.22614	-0.00885	-0.008545	0.033875	-0.16296	-0.024261	-0.52063	0.36224	-0.065918	-0.012817	-0.024719	-0.90683	0.055084	0.043182	-0.005798	0.22507	-0.023041	0.037994	0.024567	0.000305	-0.031281
44.926	0.014496	0.4216	0.16037	-0.018921	-0.12558	0.083313	-0.53528	0.11978	0.47257	-0.25269	-0.003204	0.31891	0.08316	0.19043	0.061188	-0.33493	-0.04425	-0.64743	0.62378	0.005646	0.045776	0.016174	-0.8847	0.0354	0.03952	-0.00061	0.31067	-0.022278	-0.00351	0.059509	-0.002441	-0.037384
